<?xml version="1.0" encoding="UTF-8" standalone="no"?>
<!-- Created with Inkscape (http://www.inkscape.org/) -->

<svg
   width="108pt"
   height="335pt"
   viewBox="0 0 107.821226310964 334.445470501602"
   version="1.1"
   id="svg1"
   xml:space="preserve"
   xmlns="http://www.w3.org/2000/svg"
   xmlns:svg="http://www.w3.org/2000/svg"><defs
     id="defs1"><marker
       style="overflow:visible"
       id="ArrowWide"
       refX="0"
       refY="0"
       orient="auto-start-reverse"
       markerWidth="1"
       markerHeight="1"
       viewBox="0 0 1 1"
       preserveAspectRatio="xMidYMid"><path
         style="fill:none;stroke:context-stroke;stroke-width:1;stroke-linecap:butt"
         d="M 3,-3 0,0 3,3"
         transform="rotate(180,0.125,0)"
         id="path1" /></marker><rect
       x="54.4760589893471"
       y="100.314917232931"
       width="83.2872929055703"
       height="13.0791897007266"
       id="rect18" /><rect
       x="53.694915225906"
       y="-21.6823019199747"
       width="88.659046070682"
       height="15.8927867476254"
       id="rect1" /><clipPath
       clipPathUnits="userSpaceOnUse"
       id="clipPath2"><path
         d="M 0,220.124 H 468.776 V 0 H 0 Z"
         transform="matrix(1,0,0,-1,0,210.08011)"
         id="path2" /></clipPath><clipPath
       clipPathUnits="userSpaceOnUse"
       id="clipPath26"><path
         d="M 0,198.349 H 85.039 V 116.966 H 0 Z"
         transform="matrix(0.01175926,0,0,-0.01228763,3.3278702e-7,2.4372381)"
         id="path26" /></clipPath><clipPath
       clipPathUnits="userSpaceOnUse"
       id="clipPath27"><path
         d="m 95.684,198.349 h 85.039 V 116.966 H 95.684 Z"
         transform="matrix(0.01175926,0,0,-0.01228763,-1.1251757,2.4372381)"
         id="path27" /></clipPath><clipPath
       clipPathUnits="userSpaceOnUse"
       id="clipPath28"><path
         d="m 191.368,198.349 h 85.039 v -81.383 h -85.039 z"
         transform="matrix(0.01175926,0,0,-0.01228763,-2.250351,2.4372381)"
         id="path28" /></clipPath><clipPath
       clipPathUnits="userSpaceOnUse"
       id="clipPath29"><path
         d="M 180.724,21.953 H 95.685 v 81.383 h 85.039 z"
         transform="matrix(-0.01175926,0,0,0.01228763,2.1251756,-0.26974799)"
         id="path29" /></clipPath><clipPath
       clipPathUnits="userSpaceOnUse"
       id="clipPath30"><path
         d="m 382.737,103.335 h 62.512 V 43.513 h -62.512 z"
         transform="matrix(0.01599688,0,0,-0.01671616,-6.1225941,1.727372)"
         id="path30" /></clipPath><clipPath
       clipPathUnits="userSpaceOnUse"
       id="clipPath32"><path
         d="m 387.737,97.99 h 62.512 V 38.168 h -62.512 z"
         transform="matrix(0.01599682,0,0,-0.01671616,-6.2025539,1.6380164)"
         id="path32" /></clipPath><clipPath
       clipPathUnits="userSpaceOnUse"
       id="clipPath34"><path
         d="m 392.736,92.99 h 62.512 V 33.168 h -62.512 z"
         transform="matrix(0.01599682,0,0,-0.01671616,-6.2825154,1.5544346)"
         id="path34" /></clipPath><clipPath
       clipPathUnits="userSpaceOnUse"
       id="clipPath36"><path
         d="m 397.737,87.99 h 62.512 V 28.168 h -62.512 z"
         transform="matrix(0.01599682,0,0,-0.01671616,-6.3625222,1.4708549)"
         id="path36" /></clipPath><clipPath
       clipPathUnits="userSpaceOnUse"
       id="clipPath38"><path
         d="m 402.737,82.99 h 62.512 V 23.168 h -62.512 z"
         transform="matrix(0.01599682,0,0,-0.01671616,-6.4425064,1.3872731)"
         id="path38" /></clipPath><clipPath
       clipPathUnits="userSpaceOnUse"
       id="clipPath40"><path
         d="m 287.053,198.349 h 85.039 v -81.383 h -85.039 z"
         transform="matrix(0.01175926,0,0,-0.01228763,-3.3755264,2.4372381)"
         id="path40" /></clipPath><clipPath
       clipPathUnits="userSpaceOnUse"
       id="clipPath49"><path
         d="m 287.053,103.335 h 85.039 V 21.953 h -85.039 z"
         transform="matrix(0.01175926,0,0,-0.01228763,-3.3755264,1.2697485)"
         id="path49" /></clipPath><clipPath
       clipPathUnits="userSpaceOnUse"
       id="clipPath58"><path
         d="m 382.737,198.349 h 85.039 v -81.383 h -85.039 z"
         transform="matrix(0.00512984,0,0,-0.00536033,-1.5981081,1.2207992)"
         id="path58" /></clipPath><clipPath
       clipPathUnits="userSpaceOnUse"
       id="clipPath60"><path
         d="m 382.737,116.967 h 85.039 v 81.383 h -85.039 z"
         id="path60" /></clipPath><clipPath
       clipPathUnits="userSpaceOnUse"
       id="clipPath62"><path
         d="M 0,220.124 H 468.776 V 0 H 0 Z"
         id="path62" /></clipPath><clipPath
       clipPathUnits="userSpaceOnUse"
       id="clipPath63"><path
         d="m 191.369,103.335 h 85.039 V 21.952 h -85.039 z"
         transform="matrix(0.00512984,0,0,-0.00536033,-0.61642036,0.71149598)"
         id="path63" /></clipPath><clipPath
       clipPathUnits="userSpaceOnUse"
       id="clipPath65"><path
         d="m 191.369,21.953 h 85.039 v 81.383 h -85.039 z"
         id="path65" /></clipPath><clipPath
       clipPathUnits="userSpaceOnUse"
       id="clipPath67"><path
         d="M 0,103.336 H 85.04 V 21.953 H 0 Z"
         transform="matrix(0.01175925,0,0,-0.01228763,2.5047193e-7,1.2697492)"
         id="path67" /></clipPath><clipPath
       clipPathUnits="userSpaceOnUse"
       id="clipPath86"><path
         d="M 0,220.124 H 468.776 V 0 H 0 Z"
         transform="matrix(1,0,0,-1,-94.912105,2.0005026)"
         id="path86" /></clipPath><clipPath
       clipPathUnits="userSpaceOnUse"
       id="clipPath89"><path
         d="M 0,220.124 H 468.776 V 0 H 0 Z"
         transform="matrix(1,0,0,-1,-409.15281,2)"
         id="path89" /></clipPath><clipPath
       clipPathUnits="userSpaceOnUse"
       id="clipPath92"><path
         d="M 0,220.124 H 468.776 V 0 H 0 Z"
         transform="matrix(1,0,0,-1,-195.9883,212.80421)"
         id="path92" /></clipPath><clipPath
       clipPathUnits="userSpaceOnUse"
       id="clipPath98"><path
         d="M 0,220.124 H 468.776 V 0 H 0 Z"
         transform="matrix(1,0,0,-1,-13.436001,-8.3691027)"
         id="path98" /></clipPath><clipPath
       clipPathUnits="userSpaceOnUse"
       id="clipPath100"><path
         d="M 0,220.124 H 468.776 V 0 H 0 Z"
         transform="matrix(1,0,0,-1,-13.436001,-65.969104)"
         id="path100" /></clipPath><clipPath
       clipPathUnits="userSpaceOnUse"
       id="clipPath102"><path
         d="M 0,220.124 H 468.776 V 0 H 0 Z"
         transform="matrix(1,0,0,-1,-13.436001,-77.969704)"
         id="path102" /></clipPath></defs><text
     xml:space="preserve"
     style="font-style:normal;font-variant:normal;font-weight:bold;font-stretch:normal;font-size:7.98678px;line-height:1;font-family:Arial;-inkscape-font-specification:'Arial Bold';text-align:center;text-anchor:middle;fill:#000000;stroke:none;stroke-width:1.41497"
     x="37.669921875"
     y="288.444580078125"
     id="text17-6"><tspan
       id="tspan17-7"
       style="font-weight:normal;text-align:start;text-anchor:start;stroke:none;stroke-width:1.41498"
       x="47.7040939331055"
       y="288.444580078125">±180°</tspan></text><text
     xml:space="preserve"
     style="font-style:normal;font-variant:normal;font-weight:bold;font-stretch:normal;font-size:7.98678px;line-height:1;font-family:Arial;-inkscape-font-specification:'Arial Bold';text-align:center;text-anchor:middle;fill:#000000;stroke:none;stroke-width:1.41497"
     x="52.0802459716797"
     y="257.860473632812"
     id="text17-2-2"><tspan
       id="tspan17-8-2"
       style="font-weight:normal;text-align:start;text-anchor:start;stroke:none;stroke-width:1.41498"
       x="57.6881484985352"
       y="257.860473632812">90°</tspan></text><text
     xml:space="preserve"
     style="font-style:normal;font-variant:normal;font-weight:normal;font-stretch:normal;font-size:7.98678px;line-height:1;font-family:Arial;-inkscape-font-specification:Arial;text-align:start;text-anchor:start;fill:#000000;stroke-width:0.998342"
     x="45.8477973937988"
     y="222.659042358398"
     id="text36-9"><tspan
       id="tspan35-2"
       style="stroke-width:0.998345"
       x="45.8477973937988"
       y="222.659042358398">0°</tspan></text><g
     id="g41807"
     transform="matrix(0.998344721706054,0,0,0.998344721706054,-90.420152121671,-233.995101045259)"><line
       class="cls-6"
       x1="144.570068359375"
       y1="294.638671875"
       x2="144.570068359375"
       y2="269.5048828125"
       id="line41807"
       style="fill:none;stroke:#000000;stroke-miterlimit:10" /><polygon
       points="144.570068672389,266.634411909095 142.575439766139,270.088513471595 146.56457550833,270.088513471595 "
       id="polygon41807" /></g><g
     id="g41808"
     transform="matrix(0.998344721706054,0,0,0.998344721706054,-90.420152121671,-233.995101045259)"><line
       class="cls-6"
       x1="144.901489257812"
       y1="294.114868164062"
       x2="170.035278320312"
       y2="294.114868164062"
       id="line41808"
       style="fill:none;stroke:#000000;stroke-miterlimit:10" /><polygon
       points="172.90576203177,294.114880659095 169.45166046927,292.120373823154 169.45166046927,296.109387495026 "
       id="polygon41808" /></g><g
     id="g41809"
     transform="matrix(0.998344721706054,0,0,0.998344721706054,-90.420152121671,-233.995101045259)"><line
       class="cls-6"
       x1="144.901489257812"
       y1="294.114868164062"
       x2="119.767700195312"
       y2="294.114868164062"
       id="line41809"
       style="fill:none;stroke:#000000;stroke-miterlimit:10" /><polygon
       points="116.897217109889,294.114880659095 120.351318672389,296.109387495026 120.351318672389,292.120373823154 "
       id="polygon41809" /></g><g
     id="g41812"
     transform="matrix(0.998344721706054,0,0,0.998344721706054,-90.420152121671,-233.995101045259)"><path
       class="cls-4"
       d="m 144.570068672389,271.115368940345 c 0.499755859381,0 0.99951171875,0.02014160156 1.49853515625,0.05981445312"
       id="path41810"
       style="fill:none;stroke:#000000;stroke-width:0.5px;stroke-miterlimit:10" /><path
       class="cls-8"
       d="m 149.05371125052,271.640637495025 c 9.228759765619,2.13793945313 17.527099609369,10.49890136719 19.08825683594,19.47961425782"
       id="path41811"
       style="fill:none;stroke:#000000;stroke-width:0.5px;stroke-miterlimit:10;stroke-dasharray:3.02351, 3.02351" /><path
       class="cls-4"
       d="m 168.338623359889,292.619885541904 c 0.04382324219,0.497680664061 0.06616210938,0.996337890622 0.06616210938,1.494995117191"
       id="path41812"
       style="fill:none;stroke:#000000;stroke-width:0.5px;stroke-miterlimit:10" /></g><g
     id="g41815"
     transform="matrix(0.998344721706054,0,0,0.998344721706054,-90.420152121671,-233.995101045259)"><path
       class="cls-4"
       d="m 144.570068672389,271.115368940345 c -0.499267578119,0 -0.998413085929,0.02209472656 -1.49658203125,0.06530761718"
       id="path41813"
       style="fill:none;stroke:#000000;stroke-width:0.5px;stroke-miterlimit:10" /><path
       class="cls-2"
       d="m 140.17150910208,271.669324018465 c -8.775756835941,2.18530273438 -16.64465332031,10.52685546875 -18.11743164062,19.478149414061"
       id="path41814"
       style="fill:none;stroke:#000000;stroke-width:0.5px;stroke-miterlimit:10;stroke-dasharray:2.94778, 2.94778" /><path
       class="cls-4"
       d="m 121.87097199271,292.617199995026 c -0.0419921875,0.498657226569 -0.0634765625,0.998168945319 -0.0634765625,1.497680664069"
       id="path41815"
       style="fill:none;stroke:#000000;stroke-width:0.5px;stroke-miterlimit:10" /></g><text
     class="cls-50"
     id="text41817"
     style="font-size:6.98841px;font-family:ArialMT, Arial;stroke-width:0.998345"
     x="41.259578704834"
     y="32.7267532348633"><tspan
       x="41.259578704834"
       y="32.7267532348633"
       id="tspan41817"
       style="stroke-width:0.998345">90°</tspan></text><text
     class="cls-50"
     id="text41818"
     style="font-size:6.98841px;font-family:ArialMT, Arial;stroke-width:0.998345"
     x="76.1090316772461"
     y="68.8903884887695"><tspan
       x="76.1090316772461"
       y="68.8903884887695"
       id="tspan41818"
       style="stroke-width:0.998345">0°</tspan></text><text
     class="cls-50"
     id="text41819"
     style="font-size:6.98841px;font-family:ArialMT, Arial;stroke-width:0.998345"
     x="23.5068016052246"
     y="68.8903884887695"><tspan
       x="23.5068016052246"
       y="68.8903884887695"
       id="tspan41819"
       style="stroke-width:0.998345">180°</tspan></text><ellipse
     class="cls-17"
     cx="53.9106140136719"
     cy="22.8521499633789"
     rx="2.26383566856384"
     ry="7.08353424072266"
     id="ellipse41819"
     style="fill:#39b54a;stroke:#000000;stroke-width:0.998345;stroke-miterlimit:10" /><ellipse
     class="cls-14"
     cx="91.720573425293"
     cy="59.6329002380371"
     rx="7.08353424072266"
     ry="2.26383566856384"
     id="ellipse41820"
     style="fill:#d9e021;stroke:#000000;stroke-width:0.998345;stroke-miterlimit:10" /><ellipse
     class="cls-1"
     cx="17.4198570251465"
     cy="59.6329002380371"
     rx="7.08353424072266"
     ry="2.26383566856384"
     id="ellipse41821"
     style="fill:#006837;stroke:#000000;stroke-width:0.998345;stroke-miterlimit:10" /><ellipse
     class="cls-12"
     cx="28.7048091888428"
     cy="80.550178527832"
     rx="7.08353424072266"
     ry="2.26383566856384"
     transform="rotate(-45)"
     id="ellipse41822"
     style="fill:#8cc63f;stroke:#000000;stroke-width:0.998345;stroke-miterlimit:10" /><ellipse
     class="cls-15"
     cx="-3.84119629859924"
     cy="48.0042419433594"
     rx="2.26383566856384"
     ry="7.08353424072266"
     transform="rotate(-45)"
     id="ellipse41823"
     style="fill:#009245;stroke:#000000;stroke-width:0.998345;stroke-miterlimit:10" /><line
     class="cls-6"
     x1="53.9106140136719"
     y1="293.083129882812"
     x2="62.4004783630371"
     y2="293.083129882812"
     id="line29"
     style="fill:none;stroke:#000000;stroke-width:0.998345;stroke-miterlimit:10" /><g
     id="g41836"
     transform="matrix(0.998344721706054,0,0,0.998344721706054,-96.0141790994463,-135.184301594848)"><line
       class="cls-11"
       x1="150.173370361328"
       y1="395.085174560547"
       x2="142.211700439453"
       y2="395.085174560547"
       id="line41836"
       style="fill:none;stroke:#999999;stroke-width:0.5px;stroke-miterlimit:10;stroke-dasharray:3.099, 1.033" /><polygon
       class="cls-237"
       points="144.209498372109,396.763388649544 143.868433918989,397.129599587044 141.669459309609,395.084677712044 143.868433918989,393.040244118294 144.209498372109,393.406455055794 142.403590168989,395.084677712044 "
       id="polygon41836"
       style="fill:#999999" /></g><line
     class="cls-6"
     x1="53.9106140136719"
     y1="259.246856689453"
     x2="53.9106140136719"
     y2="250.757049560547"
     id="line41837"
     style="fill:none;stroke:#000000;stroke-width:0.998345;stroke-miterlimit:10" /><ellipse
     class="cls-7"
     cx="53.9106140136719"
     cy="293.083129882812"
     rx="29.7147254943848"
     ry="14.1497669219971"
     id="ellipse41837"
     style="fill:none;stroke:#93278f;stroke-width:0.998345;stroke-miterlimit:10" /><path
     class="cls-7"
     d="m 53.9106125415934,273.395952291505 c -16.410396887421,0 -29.7140054486899,-6.335056909583 -29.7140054486899,-14.149053314686 0,-7.815425874241 13.3036085612689,-14.15048210375 29.7140054486899,-14.15048210375 16.4103968874121,0 29.7140054486791,6.335056229509 29.7140054486791,14.15048210375 0,7.813996405103 -13.303608561267,14.149053314686 -29.7140054486791,14.149053314686 z"
     id="path41837"
     style="fill:none;stroke:#93278f;stroke-width:0.998345;stroke-miterlimit:10" /><path
     class="cls-26"
     d="m 65.2302896452897,293.083154565469 c 0,1.56340972315 -1.266896648882,2.830306372021 -2.8303139887941,2.830306372021 -1.562396693306,0 -2.829308575711,-1.266896648871 -2.829308575711,-2.830306372021 0,-1.563409723149 1.266911882405,-2.830306372022 2.829308575711,-2.830306372022 1.563417339912,0 2.8303139887941,1.266896648873 2.8303139887941,2.830306372022"
     id="path41838"
     style="fill:#00ffff;stroke:#000000;stroke-width:0.499172;stroke-dasharray:none" /><path
     class="cls-96"
     d="m 55.3257695359905,259.246897051984 c 0,0.781703909488 -0.633943414215,1.41465428786 -1.4146619046211,1.41465428786 -0.781693436432,0 -1.4156520841719,-0.632950378372 -1.4156520841719,-1.41465428786 0,-0.78170390948 0.6339586477399,-1.41465428785 1.4156520841719,-1.41465428785 0.7807184904061,0 1.4146619046211,0.63295037837 1.4146619046211,1.41465428785"
     id="path41841"
     style="fill:#93278f;stroke-width:0.998345" /><path
     class="cls-26"
     d="m 56.7404252959191,250.757044201681 c 0,1.563407818956 -1.2668966488823,2.830307324113 -2.8303139887933,2.830307324113 -1.5623966933063,0 -2.8293085757012,-1.266899505157 -2.8293085757012,-2.830307324113 0,-1.563407818967 1.2669118823949,-2.830308276226 2.8293085757012,-2.830308276226 1.563417339911,0 2.8303139887933,1.266900457259 2.8303139887933,2.830308276226"
     id="path41842"
     style="fill:#00ffff;stroke:#000000;stroke-width:0.499172;stroke-dasharray:none" /><text
     class="cls-59"
     id="text41845"
     style="font-size:7.98676px;font-family:MyriadPro-Regular, 'Myriad Pro';fill:#999999;stroke-width:0.998345;fill-opacity:1"
     x="17.9565448760986"
     y="325.088256835938"><tspan
       x="17.9565448760986"
       y="325.088256835938"
       id="tspan41845"
       style="font-style:normal;font-variant:normal;font-weight:bold;font-stretch:normal;font-family:Arial;-inkscape-font-specification:'Arial Bold';stroke-width:0.998345;fill:#999999;fill-opacity:1">Migration direction</tspan></text><g
     id="g41845"
     transform="matrix(0.998344721706054,0,0,0.998344721706054,-95.1048591359447,-134.321765005351)"><line
       class="cls-11"
       x1="149.262542724609"
       y1="428.112976074219"
       x2="141.300872802734"
       y2="428.112976074219"
       id="line41845"
       style="fill:none;stroke:#999999;stroke-width:0.5px;stroke-miterlimit:10;stroke-dasharray:3.099, 1.033" /><polygon
       class="cls-237"
       points="143.298678364799,429.791209390905 142.95761391166,430.157420328405 140.758639302299,428.112498453405 142.95761391166,426.068064859655 143.298678364799,426.434275797155 141.49277016166,428.112498453405 "
       id="polygon41845"
       style="fill:#999999" /></g><path
     class="cls-96"
     d="m 55.3257695359905,293.083153025942 c 0,0.78170486157 -0.633943414216,1.41465428785 -1.414661904622,1.41465428785 -0.781693436424,0 -1.415652084171,-0.63294942628 -1.415652084171,-1.41465428785 0,-0.78170486158 0.633958647747,-1.414654287861 1.415652084171,-1.414654287861 0.780718490406,0 1.414661904622,0.632949426281 1.414661904622,1.414654287861"
     id="path41840"
     style="fill:#93278f;stroke-width:0.998345" /><ellipse
     class="cls-7"
     cx="53.9106140136719"
     cy="227.677490234375"
     rx="29.7147254943848"
     ry="14.1497669219971"
     id="ellipse41854"
     style="fill:none;stroke:#93278f;stroke-width:0.998345;stroke-miterlimit:10" /><line
     class="cls-6"
     x1="53.9106140136719"
     y1="227.677093505859"
     x2="45.4207763671875"
     y2="227.677093505859"
     id="line41857"
     style="fill:none;stroke:#000000;stroke-width:0.998345;stroke-miterlimit:10" /><path
     class="cls-26"
     d="m 42.5909636128515,227.677087670806 c -5.9e-11,1.56340972315 1.266896648763,2.830306372082 2.830313988674,2.830306372152 1.562396693306,7e-11 2.829308575771,-1.266896648743 2.829308575841,-2.830306371902 7e-11,-1.563409723161 -1.266911882285,-2.830306372072 -2.829308575581,-2.830306372141 -1.563417339931,-7.1e-11 -2.830313988854,1.266896648742 -2.830313988934,2.830306371891"
     id="path41854"
     style="fill:#00ffff;stroke:#000000;stroke-width:0.499172;stroke-dasharray:none" /><g
     id="g41858"
     transform="matrix(0.998344721706054,0,0,0.998344721706054,-97.8406490616521,-134.321406057)"><line
       class="cls-11"
       x1="152.002868652344"
       y1="362.599090576172"
       x2="144.041198730469"
       y2="362.599090576172"
       id="line41858"
       style="fill:none;stroke:#999999;stroke-width:0.5px;stroke-miterlimit:10;stroke-dasharray:3.099, 1.033" /><polygon
       class="cls-237"
       points="146.039004172379,364.277304665655 145.697939719239,364.643515603155 143.498965109879,362.598593728155 145.697939719239,360.554160134405 146.039004172379,360.920371071905 144.233095969239,362.598593728155 "
       id="polygon41858"
       style="fill:#999999" /></g><path
     class="cls-96"
     d="m 52.4954555471969,227.677488150078 c -4e-11,0.781704861569 0.633943414147,1.414654287881 1.414661904552,1.41465428791 0.781693436424,4e-11 1.415652084201,-0.63294942621 1.415652084241,-1.414654287779 3e-11,-0.781704861581 -0.633958647687,-1.414654287892 -1.415652084111,-1.414654287932 -0.780718490415,-2.9e-11 -1.414661904652,0.63294942622 -1.414661904682,1.414654287801"
     id="path41856"
     style="fill:#93278f;stroke-width:0.998345" /><path
     style="fill:#000000;stroke:#000000;stroke-width:0.998342;stroke-dasharray:2.99503, 0.998342;stroke-dashoffset:0"
     d="M 24.4628353118896,163.252882691416 H 83.358392715454"
     id="path21" /><path
     style="fill:#000000;stroke:#000000;stroke-width:0.998345;stroke-dasharray:0.998345, 0.998345;stroke-dashoffset:0"
     d="m 53.9106140136719,148.780275078806 v 29.238559722901"
     id="path21-6-6-1" /><ellipse
     class="cls-7"
     cx="53.9106140136719"
     cy="163.252883911133"
     id="ellipse41854-3-9"
     style="fill:none;stroke:#93278f;stroke-width:0.998345;stroke-miterlimit:10;stroke-dasharray:none"
     rx="29.4477787017822"
     ry="14.4726076126099" /><g
     id="g21"
     transform="translate(0,-3.69981743717978)"><path
       style="fill:#000000;stroke:#000000;stroke-width:0.998342;stroke-dasharray:2.99503, 0.998342;stroke-dashoffset:0"
       d="M 39.2913341522217,123.236691293958 H 68.5298938751221"
       id="path21-6" /><path
       style="fill:#000000;stroke:#000000;stroke-width:0.998342;stroke-dasharray:0.998342, 0.998342;stroke-dashoffset:0"
       d="m 53.9106140136719,137.855971155408 v -29.2385597229"
       id="path21-6-6" /><circle
       class="cls-7"
       cx="53.9106140136719"
       cy="123.236694335938"
       id="ellipse41854-3"
       style="fill:none;stroke:#93278f;stroke-width:0.998345;stroke-miterlimit:10;stroke-dasharray:none"
       r="14.6192798614502" /></g><text
     style="font-weight:bold;font-size:7.98678px;line-height:1;font-family:Arial;-inkscape-font-specification:'Arial Bold';text-align:center;stroke-width:0.998345"
     x="24.925386428833"
     y="11.0266265869141"
     id="text33">Cell orientation</text><text
     xml:space="preserve"
     style="font-style:normal;font-variant:normal;font-weight:normal;font-stretch:normal;font-size:7.98678px;line-height:1;font-family:Arial;-inkscape-font-specification:Arial;text-align:start;text-anchor:start;fill:#000000;stroke-width:0.998342"
     x="23.0144863128662"
     y="92.2034759521484"
     id="text34"><tspan
       id="tspan33"
       style="font-weight:bold;stroke-width:0.998345"
       x="23.0144863128662"
       y="92.2034759521484">Cell aspect ratio</tspan></text><text
     xml:space="preserve"
     style="font-style:normal;font-variant:normal;font-weight:normal;font-stretch:normal;font-size:7.98678px;line-height:1;font-family:Arial;-inkscape-font-specification:Arial;text-align:start;text-anchor:start;fill:#000000;stroke-width:0.998342"
     x="26.7914371490479"
     y="101.922554016113"
     id="text35"><tspan
       id="tspan34"
       style="stroke-width:0.998345"
       x="26.7914371490479"
       y="101.922554016113">Aspect ratio = 1</tspan></text><text
     xml:space="preserve"
     style="font-style:normal;font-variant:normal;font-weight:normal;font-stretch:normal;font-size:7.98678px;line-height:1;font-family:Arial;-inkscape-font-specification:Arial;text-align:start;text-anchor:start;fill:#000000;stroke-width:0.998342"
     x="26.2688636779785"
     y="145.785247802734"
     id="text36"><tspan
       id="tspan35"
       style="stroke-width:0.998345"
       x="26.2688636779785"
       y="145.785247802734">Aspect ratio = 2</tspan></text><text
     xml:space="preserve"
     style="font-style:normal;font-variant:normal;font-weight:normal;font-stretch:normal;font-size:7.98678px;line-height:1;font-family:Arial;-inkscape-font-specification:Arial;text-align:start;text-anchor:start;fill:#000000;stroke-width:0.998342"
     x="18.5974769592285"
     y="198.927536010742"
     id="text36-7"><tspan
       id="tspan35-0"
       style="font-weight:bold;stroke-width:0.998345"
       x="18.5974769592285"
       y="198.927536010742">Cell-nucleus angle</tspan><tspan
       style="font-weight:bold;stroke-width:0.998345"
       x="18.5974769592285"
       y="206.914321899414"
       id="tspan43" /></text><text
     xml:space="preserve"
     style="font-style:normal;font-variant:normal;font-weight:normal;font-stretch:normal;font-size:7.98678px;line-height:1;font-family:Arial;-inkscape-font-specification:Arial;text-align:start;text-anchor:start;fill:#000000;stroke-width:0.998342"
     x="15.7491693496704"
     y="198.927536010742"
     id="text36-7-7"><tspan
       id="tspan35-0-8"
       style="font-weight:bold;stroke-width:0.998345"
       x="15.7491693496704"
       y="198.927536010742" /><tspan
       style="font-weight:bold;stroke-width:0.998345"
       x="15.7491693496704"
       y="206.914321899414"
       id="tspan43-1">relative to migration</tspan></text><g
     id="path37"><path
       style="color:#000000;fill:#999999;stroke-dasharray:3.99337, 0.998342;-inkscape-stroke:none"
       d="m 94.5979774135668,314.615212303487 -80.4192110950202,3e-12"
       id="path4" /><path
       style="color:#000000;fill:#999999;stroke-dasharray:3.99337, 0.998342;-inkscape-stroke:none"
       d="m 14.1796875,314.115234375 v 1 h 0.55078125 v -1 z m 1.548828125,0 v 1 h 3.994140625 v -1 z m 4.9921875,0 v 1 h 3.994140625 v -1 z m 4.9921875,0 v 1 h 3.9921875 v -1 z m 4.990234375,0 v 1 h 3.994140625 v -1 z m 4.9921875,0 v 1 h 3.994140625 v -1 z m 4.9921875,0 v 1 h 3.994140625 v -1 z m 4.9921875,0 v 1 h 3.9921875 v -1 z m 4.9921875,0 v 1 h 3.9921875 v -1 z m 4.990234375,0 v 1 H 59.65625 v -1 z m 4.9921875,0 v 1 H 64.6484375 v -1 z m 4.9921875,0 v 1 h 3.9921875 v -1 z m 4.9921875,0 v 1 h 3.9921875 v -1 z m 4.990234375,0 v 1 h 3.994140625 v -1 z m 4.9921875,0 v 1 h 3.994140625 v -1 z m 4.9921875,0 v 1 h 3.9921875 v -1 z m 4.9921875,0 v 1 h 3.9921875 v -1 z"
       id="path5" /><g
       id="g3"><path
         style="color:#000000;fill:#999999;-inkscape-stroke:none"
         d="m 16.5703125,311.267578125 -3.34765625,3.34765625 3.34765625,3.34765625 0.70703125,-0.705078125 -2.642578125,-2.642578125 2.642578125,-2.642578125 z"
         id="path3" /></g></g></svg>
